<svg xmlns="http://www.w3.org/2000/svg" width="26.5" height="24.5" viewBox="0 0 26.5 24.5">
  <path id="FontAwsome_buromobelexperte_" data-name="FontAwsome (buromobelexperte)" d="M0,32v6.857H7.429V32Zm6.964,6.429H.464v-6h6.5ZM9.286,32v6.857h7.429V32Zm6.964,6.429H9.75v-6h6.5ZM18.571,32v6.857H26V32Zm6.964,6.429h-6.5v-6h6.5ZM0,40.571v6.857H7.429V40.571ZM6.964,47H.464V41h6.5Zm2.321-6.429v6.857h7.429V40.571ZM16.25,47H9.75V41h6.5Zm2.321-6.429v6.857H26V40.571ZM25.536,47h-6.5V41h6.5ZM0,49.143V56H7.429V49.143Zm6.964,6.429H.464v-6h6.5Zm2.321-6.429V56h7.429V49.143Zm6.964,6.429H9.75v-6h6.5Zm2.321-6.429V56H26V49.143Z" transform="translate(0.25 -31.75)" fill="#fff" stroke="#fff" stroke-width="0.5"/>
</svg>
