<svg xmlns="http://www.w3.org/2000/svg" width="201.24" height="84.879" viewBox="0 0 201.24 84.879">
  <g id="Group_25736" data-name="Group 25736" transform="translate(22.814 0.275)">
    <path id="Background" d="M192.805,0a8.435,8.435,0,0,1,0,16.87H144.6a8.435,8.435,0,0,1,0,16.87h26.511a8.435,8.435,0,0,1,0,16.87h-12.26c-5.873,0-10.636,3.777-10.636,8.435q0,4.659,7.23,8.435a8.435,8.435,0,0,1,0,16.87H55.431a8.435,8.435,0,0,1,0-16.87h-47a8.435,8.435,0,1,1,0-16.87h48.2a8.435,8.435,0,0,0,0-16.87H26.511a8.435,8.435,0,0,1,0-16.87h48.2a8.435,8.435,0,1,1,0-16.87Zm0,33.741a8.435,8.435,0,1,1-8.435,8.435A8.435,8.435,0,0,1,192.805,33.741Z" transform="translate(-22.814 -0.275)" fill="#f4f4f4" fill-rule="evenodd"/>
    <g id="Group_6254" data-name="Group 6254" transform="translate(39.666)">
      <ellipse id="Ellipse_122" data-name="Ellipse 122" cx="39.374" cy="39.404" rx="39.374" ry="39.404" transform="translate(0 5.296)" fill="none" stroke="#413e49" stroke-width="1"/>
      <g id="svgexport-6_6_" data-name="svgexport-6 (6)">
        <g id="Group_6239" data-name="Group 6239">
          <g id="Group_6238" data-name="Group 6238">
            <path id="Path_11140" data-name="Path 11140" d="M42.02,0a42.052,42.052,0,1,0,42.02,42.052A42.083,42.083,0,0,0,42.02,0Zm0,80.6A38.548,38.548,0,1,1,80.537,42.052,38.576,38.576,0,0,1,42.02,80.6Z" fill="#363636"/>
          </g>
        </g>
      </g>
      <g id="Group_6244" data-name="Group 6244" transform="translate(20.945 20.961)">
        <path id="Path_11141" data-name="Path 11141" d="M27.908,452.841H.864A.864.864,0,0,1,0,451.977v-3.632a.864.864,0,0,1,.864-.865H27.908Zm0,0" transform="translate(0 -410.298)" fill="#f7858a" stroke="#413e49" stroke-width="1"/>
        <path id="Path_11143" data-name="Path 11143" d="M382.934,316.866a3.629,3.629,0,1,0-7.258,0v1.73a3.629,3.629,0,1,0,7.258,0Zm0,0" transform="translate(-344.484 -287.206)" fill="#feccc1" stroke="#363636" stroke-width="1"/>
        <path id="Path_11145" data-name="Path 11145" d="M342.145,418.582v-1.671a5.188,5.188,0,0,0-3.484-4.9l-1.85-.643a5.561,5.561,0,0,0-1.826-.308h-1.059a5.56,5.56,0,0,0-1.826.308l-1.85.643a5.188,5.188,0,0,0-3.484,4.9v2.535h14.516a.865.865,0,0,0,.864-.865Zm0,0" transform="translate(-299.635 -376.903)" fill="#636363" stroke="#363636" stroke-width="1"/>
        <path id="Path_11147" data-name="Path 11147" d="M94.107,353.12l-1.268-.441v.008l-2.938,5.1-2.938-5.1v-.008l-1.267.44a5.188,5.188,0,0,0-3.484,4.9v2.535h15.38v-2.535a5.188,5.188,0,0,0-3.484-4.9Zm0,0" transform="translate(-75.385 -323.374)" fill="#919191" stroke="#363636" stroke-width="1"/>
        <path id="Path_11149" data-name="Path 11149" d="M139.434,347.054l2.938,5.1,2.938-5.1v-.008l-1.469-.511H140.9l-1.47.511Zm0,0" transform="translate(-127.856 -317.74)" fill="#f2f2f2" stroke="#363636" stroke-width="1"/>
        <path id="Path_11150" data-name="Path 11150" d="M138.379,252.347a3.629,3.629,0,1,0-7.258,0v1.729a3.629,3.629,0,1,0,7.258,0Zm0,0" transform="translate(-120.234 -228.049)" fill="#feccc1" stroke="#363636" stroke-width="1"/>
        <path id="Path_11152" data-name="Path 11152" d="M21.946,0H3.456A3.457,3.457,0,0,0,0,3.459v8.993a3.457,3.457,0,0,0,3.456,3.459h1.9L8.5,19.053a.691.691,0,0,0,1.18-.489V15.911H21.947A3.457,3.457,0,0,0,25.4,12.452V3.459A3.457,3.457,0,0,0,21.947,0Zm0,0" transform="translate(0 0)" fill="#8db0ff" stroke="#413e49" stroke-width="1"/>
        <path id="Path_11153" data-name="Path 11153" d="M21.946,0H3.456A3.457,3.457,0,0,0,0,3.459v8.993a3.457,3.457,0,0,0,3.456,3.459h1.9L8.5,19.053a.691.691,0,0,0,1.18-.489V15.911H21.947A3.457,3.457,0,0,0,25.4,12.452V3.459A3.457,3.457,0,0,0,21.947,0Zm0,0" transform="translate(0 0)" fill="#f7858a" stroke="#413e49" stroke-width="1"/>
        <g id="Group_6242" data-name="Group 6242" transform="translate(3.355 4.214)">
          <path id="star" d="M5.055,1.87a.22.22,0,0,1-.079.146l-1.1,1.076.261,1.52a.452.452,0,0,1,0,.061.179.179,0,0,1-.032.108.107.107,0,0,1-.093.044.245.245,0,0,1-.121-.037L2.527,4.071l-1.364.718a.258.258,0,0,1-.121.037.11.11,0,0,1-.1-.044.18.18,0,0,1-.032-.108A.5.5,0,0,1,.92,4.612l.261-1.52L.076,2.016A.232.232,0,0,1,0,1.87q0-.112.17-.14L1.7,1.508,2.379.125Q2.436,0,2.527,0t.149.125L3.36,1.508l1.525.222q.17.027.17.14Z" transform="translate(0 1.352)" fill="#fff"/>
          <path id="star-2" data-name="star" d="M5.055,1.87a.22.22,0,0,1-.079.146l-1.1,1.076.261,1.52a.452.452,0,0,1,0,.061.179.179,0,0,1-.032.108.107.107,0,0,1-.093.044.245.245,0,0,1-.121-.037L2.527,4.071l-1.364.718a.258.258,0,0,1-.121.037.11.11,0,0,1-.1-.044.18.18,0,0,1-.032-.108A.5.5,0,0,1,.92,4.612l.261-1.52L.076,2.016A.232.232,0,0,1,0,1.87q0-.112.17-.14L1.7,1.508,2.379.125Q2.436,0,2.527,0t.149.125L3.36,1.508l1.525.222q.17.027.17.14Z" transform="translate(11.389 1.352)" fill="#fff"/>
          <path id="star-3" data-name="star" d="M6.333,2.342a.275.275,0,0,1-.1.183L4.853,3.874l.327,1.9a.566.566,0,0,1,0,.076.225.225,0,0,1-.04.135.134.134,0,0,1-.116.055A.307.307,0,0,1,4.876,6L3.167,5.1,1.458,6a.323.323,0,0,1-.152.046.138.138,0,0,1-.12-.055.226.226,0,0,1-.04-.135.623.623,0,0,1,.008-.076l.327-1.9L.1,2.525A.29.29,0,0,1,0,2.342Q0,2.2.213,2.167l1.911-.278L2.98.156Q3.052,0,3.167,0t.186.156L4.21,1.889l1.911.278q.213.034.213.175Z" transform="translate(5.055 0)" fill="#fff"/>
        </g>
        <path id="Path_11156" data-name="Path 11156" d="M209.506,56.2H228a3.457,3.457,0,0,1,3.456,3.459v8.993A3.457,3.457,0,0,1,228,72.106h-8.9v2.653a.691.691,0,0,1-1.18.489l-3.14-3.143h-5.271a3.457,3.457,0,0,1-3.456-3.459V59.654a3.457,3.457,0,0,1,3.456-3.459Zm0,0" transform="translate(-188.942 -51.526)" fill="#232932" stroke="#413e49" stroke-width="1"/>
        <g id="Group_6243" data-name="Group 6243" transform="translate(21.588 9.04)">
          <path id="star-4" data-name="star" d="M5.055,1.87a.22.22,0,0,1-.079.146l-1.1,1.076.261,1.52a.452.452,0,0,1,0,.061.179.179,0,0,1-.032.108.107.107,0,0,1-.093.044.245.245,0,0,1-.121-.037L2.527,4.071l-1.364.718a.258.258,0,0,1-.121.037.11.11,0,0,1-.1-.044.18.18,0,0,1-.032-.108A.5.5,0,0,1,.92,4.612l.261-1.52L.076,2.016A.232.232,0,0,1,0,1.87q0-.112.17-.14L1.7,1.508,2.379.125Q2.436,0,2.527,0t.149.125L3.36,1.508l1.525.222q.17.027.17.14Z" transform="translate(0 1.352)" fill="#fff"/>
          <path id="star-5" data-name="star" d="M5.055,1.87a.22.22,0,0,1-.079.146l-1.1,1.076.261,1.52a.452.452,0,0,1,0,.061.179.179,0,0,1-.032.108.107.107,0,0,1-.093.044.245.245,0,0,1-.121-.037L2.527,4.071l-1.364.718a.258.258,0,0,1-.121.037.11.11,0,0,1-.1-.044.18.18,0,0,1-.032-.108A.5.5,0,0,1,.92,4.612l.261-1.52L.076,2.016A.232.232,0,0,1,0,1.87q0-.112.17-.14L1.7,1.508,2.379.125Q2.436,0,2.527,0t.149.125L3.36,1.508l1.525.222q.17.027.17.14Z" transform="translate(11.389 1.352)" fill="#fff"/>
          <path id="star-6" data-name="star" d="M6.333,2.342a.275.275,0,0,1-.1.183L4.853,3.874l.327,1.9a.566.566,0,0,1,0,.076.225.225,0,0,1-.04.135.134.134,0,0,1-.116.055A.307.307,0,0,1,4.876,6L3.167,5.1,1.458,6a.323.323,0,0,1-.152.046.138.138,0,0,1-.12-.055.226.226,0,0,1-.04-.135.623.623,0,0,1,.008-.076l.327-1.9L.1,2.525A.29.29,0,0,1,0,2.342Q0,2.2.213,2.167l1.911-.278L2.98.156Q3.052,0,3.167,0t.186.156L4.21,1.889l1.911.278q.213.034.213.175Z" transform="translate(5.055 0)" fill="#fff"/>
        </g>
      </g>
    </g>
  </g>
</svg>
