<svg xmlns="http://www.w3.org/2000/svg" width="129.914" height="67.704" viewBox="0 0 129.914 67.704">
  <g id="Group_25616" data-name="Group 25616" transform="translate(0 -2.148)">
    <path id="Background" d="M124.468,0a5.445,5.445,0,0,1,0,10.891H93.351a5.445,5.445,0,0,1,0,10.891h17.114a5.445,5.445,0,0,1,0,10.891h-7.915c-3.792,0-6.866,2.438-6.866,5.445q0,3.007,4.668,5.445a5.445,5.445,0,0,1,0,10.891H35.785a5.445,5.445,0,1,1,0-10.891H5.445a5.445,5.445,0,1,1,0-10.891H36.563a5.445,5.445,0,0,0,0-10.891H17.114a5.445,5.445,0,0,1,0-10.891H48.232A5.445,5.445,0,1,1,48.232,0Zm0,21.782a5.445,5.445,0,1,1-5.445,5.445A5.445,5.445,0,0,1,124.468,21.782Z" transform="translate(0 8.772)" fill="#f4f4f4" fill-rule="evenodd"/>
    <g id="programming-language-hash" transform="translate(30.479 0.148)">
      <path id="Path_50612" data-name="Path 50612" d="M84.455,8V48.153a7.3,7.3,0,0,1-7.3,7.3H7.8a7.3,7.3,0,0,1-7.3-7.3V8Z" transform="translate(0 13.251)" fill="#f7858a"/>
      <path id="Path_50613" data-name="Path 50613" d="M7.8,55.453H18.751L66.2,8H.5V48.153a7.3,7.3,0,0,0,7.3,7.3Z" transform="translate(0 13.251)" fill="#fff"/>
      <path id="Path_50614" data-name="Path 50614" d="M84.455,21.251H.5V10.3A7.3,7.3,0,0,1,7.8,3H77.155a7.3,7.3,0,0,1,7.3,7.3Z" fill="#fff"/>
      <path id="Path_50615" data-name="Path 50615" d="M7.8,3H77.155s7.3,0,7.3,7.3V61.4s0,7.3-7.3,7.3H7.8S.5,68.7.5,61.4V10.3S.5,3,7.8,3Z" fill="none" stroke="#363e4a" stroke-linecap="round" stroke-linejoin="round" stroke-width="2"/>
      <path id="Path_50616" data-name="Path 50616" d="M.5,8H84.455" transform="translate(0 13.251)" fill="none" stroke="#363e4a" stroke-linecap="round" stroke-linejoin="round" stroke-width="2"/>
      <path id="Path_50617" data-name="Path 50617" d="M4.663,5.25a.913.913,0,1,1-.645.267A.912.912,0,0,1,4.663,5.25Z" transform="translate(8.613 5.963)" fill="none" stroke="#363e4a" stroke-linecap="round" stroke-linejoin="round" stroke-width="2"/>
      <path id="Path_50618" data-name="Path 50618" d="M7.663,5.25a.913.913,0,1,1-.645.267A.912.912,0,0,1,7.663,5.25Z" transform="translate(16.564 5.963)" fill="none" stroke="#363e4a" stroke-linecap="round" stroke-linejoin="round" stroke-width="2"/>
      <path id="Path_50619" data-name="Path 50619" d="M10.663,5.25a.913.913,0,1,1-.645.267A.913.913,0,0,1,10.663,5.25Z" transform="translate(24.515 5.963)" fill="none" stroke="#363e4a" stroke-linecap="round" stroke-linejoin="round" stroke-width="2"/>
      <path id="Path_50620" data-name="Path 50620" d="M8.5,12H37.589" transform="translate(21.202 23.852)" fill="none" stroke="#363e4a" stroke-linecap="round" stroke-linejoin="round" stroke-width="2"/>
      <path id="Path_50621" data-name="Path 50621" d="M7.5,15H36.589" transform="translate(18.552 31.803)" fill="none" stroke="#363e4a" stroke-linecap="round" stroke-linejoin="round" stroke-width="2"/>
      <path id="Path_50622" data-name="Path 50622" d="M9.484,35.438,16.843,10" transform="translate(23.81 18.552)" fill="none" stroke="#363e4a" stroke-linecap="round" stroke-linejoin="round" stroke-width="2"/>
      <path id="Path_50623" data-name="Path 50623" d="M12.484,35.438,19.843,10" transform="translate(31.76 18.552)" fill="none" stroke="#363e4a" stroke-linecap="round" stroke-linejoin="round" stroke-width="2"/>
    </g>
  </g>
</svg>
