<svg xmlns="http://www.w3.org/2000/svg" width="32" height="24" viewBox="0 0 32 24">
  <path id="FontAwsome_chart-line_" data-name="FontAwsome (chart-line)" d="M31,84H4V65a1,1,0,0,0-1-1H1a1,1,0,0,0-1,1V86a2,2,0,0,0,2,2H31a1,1,0,0,0,1-1V85A1,1,0,0,0,31,84ZM29,66H21.621a1.5,1.5,0,0,0-1.061,2.561l2.025,2.025L18,75.172l-4.586-4.586a2,2,0,0,0-2.828,0L6.293,74.879a1,1,0,0,0,0,1.414l1.414,1.414a1,1,0,0,0,1.414,0L12,74.828l4.586,4.586a2,2,0,0,0,2.828,0l6-6,2.025,2.025A1.5,1.5,0,0,0,30,74.378V67A1,1,0,0,0,29,66Z" transform="translate(0 -64)" fill="#fff"/>
</svg>
