<svg xmlns="http://www.w3.org/2000/svg" width="27.429" height="24" viewBox="0 0 27.429 24">
  <path id="FontAwsome_server_" data-name="FontAwsome (server)" d="M25.714,38.857h-24A1.714,1.714,0,0,1,0,37.143V33.714A1.714,1.714,0,0,1,1.714,32h24a1.714,1.714,0,0,1,1.714,1.714v3.429A1.714,1.714,0,0,1,25.714,38.857Zm-2.571-4.714a1.286,1.286,0,1,0,1.286,1.286A1.286,1.286,0,0,0,23.143,34.143Zm-3.429,0A1.286,1.286,0,1,0,21,35.429,1.286,1.286,0,0,0,19.714,34.143Zm6,13.286h-24A1.714,1.714,0,0,1,0,45.714V42.286a1.714,1.714,0,0,1,1.714-1.714h24a1.714,1.714,0,0,1,1.714,1.714v3.429A1.714,1.714,0,0,1,25.714,47.429Zm-2.571-4.714A1.286,1.286,0,1,0,24.429,44,1.286,1.286,0,0,0,23.143,42.714Zm-3.429,0A1.286,1.286,0,1,0,21,44,1.286,1.286,0,0,0,19.714,42.714Zm6,13.286h-24A1.714,1.714,0,0,1,0,54.286V50.857a1.714,1.714,0,0,1,1.714-1.714h24a1.714,1.714,0,0,1,1.714,1.714v3.429A1.714,1.714,0,0,1,25.714,56Zm-2.571-4.714a1.286,1.286,0,1,0,1.286,1.286A1.286,1.286,0,0,0,23.143,51.286Zm-3.429,0A1.286,1.286,0,1,0,21,52.571,1.286,1.286,0,0,0,19.714,51.286Z" transform="translate(0 -32)" fill="#fff"/>
</svg>
