<svg xmlns="http://www.w3.org/2000/svg" width="201.24" height="85.132" viewBox="0 0 201.24 85.132">
  <g id="Group_25737" data-name="Group 25737" transform="translate(27.055 0.5)">
    <path id="Background" d="M192.805,0a8.435,8.435,0,0,1,0,16.87H144.6a8.435,8.435,0,0,1,0,16.87h26.511a8.435,8.435,0,0,1,0,16.87h-12.26c-5.873,0-10.636,3.777-10.636,8.435q0,4.659,7.23,8.435a8.435,8.435,0,0,1,0,16.87H55.431a8.435,8.435,0,0,1,0-16.87h-47a8.435,8.435,0,1,1,0-16.87h48.2a8.435,8.435,0,0,0,0-16.87H26.511a8.435,8.435,0,0,1,0-16.87h48.2a8.435,8.435,0,1,1,0-16.87Zm0,33.741a8.435,8.435,0,1,1-8.435,8.435A8.435,8.435,0,0,1,192.805,33.741Z" transform="translate(-27.055 -0.275)" fill="#f4f4f4" fill-rule="evenodd"/>
    <g id="Group_6253" data-name="Group 6253" transform="translate(39.666)">
      <ellipse id="Ellipse_124" data-name="Ellipse 124" cx="39.374" cy="39.404" rx="39.374" ry="39.404" fill="none" stroke="#413e49" stroke-width="1"/>
      <g id="Group_6250" data-name="Group 6250" transform="translate(0 0.528)">
        <g id="svgexport-6_6_" data-name="svgexport-6 (6)">
          <g id="Group_6239" data-name="Group 6239">
            <g id="Group_6238" data-name="Group 6238">
              <path id="Path_11140" data-name="Path 11140" d="M42.02,0a42.052,42.052,0,1,0,42.02,42.052A42.083,42.083,0,0,0,42.02,0Zm0,80.6A38.548,38.548,0,1,1,80.537,42.052,38.576,38.576,0,0,1,42.02,80.6Z" fill="#363636"/>
            </g>
          </g>
        </g>
        <g id="Group_6247" data-name="Group 6247" transform="translate(17.47 20.067)">
          <path id="Path_11157" data-name="Path 11157" d="M24.123,90.136H14.115a.788.788,0,0,1-.788-.788V87.136a5.794,5.794,0,0,1,5.792-5.8h0a5.794,5.794,0,0,1,5.792,5.8v2.211A.788.788,0,0,1,24.123,90.136Z" transform="translate(-13.327 -77.128)" fill="#e8e8e8" stroke="#363636" stroke-width="1"/>
          <path id="Path_11158" data-name="Path 11158" d="M131.361,250.981a4.968,4.968,0,0,1-2.143-2.526,5.164,5.164,0,0,1-3.108-4.791,5.1,5.1,0,0,1,5.014-5.18h6.381a5.183,5.183,0,0,1,0,10.36h-4.948a4.975,4.975,0,0,0,.051,1.323l.229,1.354a.216.216,0,0,1-.332.217Z" transform="translate(-114.691 -218.347)" fill="#f2f2f2" stroke="#413e49" stroke-width="1"/>
          <path id="Path_11160" data-name="Path 11160" d="M196.919,194.893a6.079,6.079,0,0,0,.139-2.008h-6.2a6.354,6.354,0,1,1-.1-12.707h8.008a6.408,6.408,0,0,1,6.437,6.277,6.33,6.33,0,0,1-3.941,5.955,6.743,6.743,0,0,1-3.156,3.37l-1.189.687a.216.216,0,0,1-.318-.236Z" transform="translate(-167.093 -165.949)" fill="#e97176" stroke="#413e49" stroke-width="1"/>
          <path id="Path_11162" data-name="Path 11162" d="M394.606,90.136H384.6a.788.788,0,0,1-.788-.788V87.136a5.794,5.794,0,0,1,5.792-5.8h0a5.794,5.794,0,0,1,5.792,5.8v2.211A.788.788,0,0,1,394.606,90.136Z" transform="translate(-346.295 -77.128)" fill="#fff" stroke="#413e49" stroke-width="1"/>
          <path id="Path_11163" data-name="Path 11163" d="M24.123,395.664H14.115a.788.788,0,0,1-.788-.788v-2.211a5.794,5.794,0,0,1,5.792-5.8h0a5.794,5.794,0,0,1,5.792,5.8v2.211A.788.788,0,0,1,24.123,395.664Z" transform="translate(-13.327 -351.694)" fill="#fff" stroke="#413e49" stroke-width="1"/>
          <path id="Path_11164" data-name="Path 11164" d="M394.606,395.664H384.6a.788.788,0,0,1-.788-.788v-2.211a5.794,5.794,0,0,1,5.792-5.8h0a5.794,5.794,0,0,1,5.792,5.8v2.211A.788.788,0,0,1,394.606,395.664Z" transform="translate(-346.295 -351.694)" fill="#e8e8e8" stroke="#363636" stroke-width="1"/>
          <g id="Group_6246" data-name="Group 6246" transform="translate(1.989)">
            <path id="Path_11170" data-name="Path 11170" d="M36.718,47.283a3.756,3.756,0,1,1,3.753-3.756A3.759,3.759,0,0,1,36.718,47.283Z" transform="translate(-32.965 -39.77)" fill="#e97176" stroke="#363636" stroke-width="1"/>
            <path id="Path_11171" data-name="Path 11171" d="M407.2,47.283a3.756,3.756,0,1,1,3.753-3.756A3.759,3.759,0,0,1,407.2,47.283Z" transform="translate(-365.932 -39.77)" fill="#e97176" stroke="#363636" stroke-width="1"/>
            <path id="Path_11172" data-name="Path 11172" d="M36.718,352.812a3.756,3.756,0,1,1,3.753-3.756A3.759,3.759,0,0,1,36.718,352.812Z" transform="translate(-32.965 -314.337)" fill="#e97176" stroke="#363636" stroke-width="1"/>
            <path id="Path_11173" data-name="Path 11173" d="M407.2,352.812a3.756,3.756,0,1,1,3.753-3.756A3.759,3.759,0,0,1,407.2,352.812Z" transform="translate(-365.932 -314.337)" fill="#e97176" stroke="#363636" stroke-width="1"/>
          </g>
        </g>
      </g>
    </g>
  </g>
</svg>
