<svg xmlns="http://www.w3.org/2000/svg" width="201.24" height="84.604" viewBox="0 0 201.24 84.604">
  <g id="Group_25735" data-name="Group 25735" transform="translate(-713 -3061.423)">
    <path id="Background" d="M192.805,0a8.435,8.435,0,0,1,0,16.87H144.6a8.435,8.435,0,0,1,0,16.87h26.511a8.435,8.435,0,0,1,0,16.87h-12.26c-5.873,0-10.636,3.777-10.636,8.435q0,4.659,7.23,8.435a8.435,8.435,0,0,1,0,16.87H55.431a8.435,8.435,0,0,1,0-16.87h-47a8.435,8.435,0,1,1,0-16.87h48.2a8.435,8.435,0,0,0,0-16.87H26.511a8.435,8.435,0,0,1,0-16.87h48.2a8.435,8.435,0,1,1,0-16.87Zm0,33.741a8.435,8.435,0,1,1-8.435,8.435A8.435,8.435,0,0,1,192.805,33.741Z" transform="translate(713 3061.647)" fill="#f4f4f4" fill-rule="evenodd"/>
    <g id="Group_6260" data-name="Group 6260" transform="translate(739 3061.923)">
      <g id="Group_6255" data-name="Group 6255" transform="translate(29.077 0)">
        <ellipse id="Ellipse_123" data-name="Ellipse 123" cx="39.374" cy="39.404" rx="39.374" ry="39.404" transform="translate(14.711)" fill="none" stroke="#413e49" stroke-width="1"/>
        <g id="Group_6245" data-name="Group 6245">
          <g id="Group_6236" data-name="Group 6236" transform="translate(26.473 26.712)">
            <path id="Path_11126" data-name="Path 11126" d="M87.858,246.556l1.642.9a2.845,2.845,0,0,0,2.74-4.986,2.835,2.835,0,0,0,3.919-3.728l.426-.178L77.337,223.235c-5.491-3.706-9.316,1.069-13.091-1.057l-5-2.309a1.7,1.7,0,0,0-2.247.82l-5.37,11.434a1.7,1.7,0,0,0,.839,2.271c1.784.8,4.518,2.035,5.078,2.253,1.711.665,1.147,3.341,2.083,4.562,1.441,1.88,1.676,3.251,2.9,3.956l17.379,9.989a2.832,2.832,0,0,0,3.861-1.122,2.869,2.869,0,0,0-1.117-3.87l2.462,1.38a2.845,2.845,0,0,0,2.74-4.986Z" transform="translate(-51.463 -219.713)" fill="#fff" stroke="#413e49" stroke-width="1" fill-rule="evenodd"/>
            <path id="Path_11132" data-name="Path 11132" d="M120.64,379.582a2.939,2.939,0,0,1,3.559-.627,2.9,2.9,0,0,1,.971.841,2.947,2.947,0,0,1,.23,3.125l-1.731,3.239a2.927,2.927,0,0,1-5.463-1.9,2.927,2.927,0,0,1-5.273-2.146,2.928,2.928,0,1,1-5.17-2.752l.546-1.021a2.928,2.928,0,0,1-4.552-3.549l1.805-3.378a2.928,2.928,0,0,1,5.246,2.6,2.927,2.927,0,0,1,4.819,2.881,2.927,2.927,0,0,1,5.014,2.684Z" transform="translate(-96.899 -351.032)" fill="#f7858a" stroke="#413e49" stroke-width="1" fill-rule="evenodd"/>
            <path id="Path_11137" data-name="Path 11137" d="M196.29,242.259l9.833,5.609a2.908,2.908,0,0,1,1.179,1.259l5.549-2.317a1.7,1.7,0,0,0,.929-2.181l-4.631-11.956a1.7,1.7,0,0,0-2.383-.883l-3.319,1.778c-3.964,2.064-7.782-4.882-14.96.047a18.034,18.034,0,0,0-2.6,2.208,34.546,34.546,0,0,1-7.176,5.421.34.34,0,0,0-.1.5C184.3,249.079,191.235,239.376,196.29,242.259Z" transform="translate(-162.605 -230.094)" fill="#f7858a" stroke="#413e49" stroke-width="1" fill-rule="evenodd"/>
          </g>
          <g id="svgexport-6_6_" data-name="svgexport-6 (6)" transform="translate(9.42)">
            <g id="Group_6239" data-name="Group 6239">
              <g id="Group_6238" data-name="Group 6238">
                <path id="Path_11140" data-name="Path 11140" d="M42.02,0a42.052,42.052,0,1,0,42.02,42.052A42.083,42.083,0,0,0,42.02,0Zm0,80.6A38.548,38.548,0,1,1,80.537,42.052,38.576,38.576,0,0,1,42.02,80.6Z" fill="#363636"/>
              </g>
            </g>
          </g>
          <g id="Group_6237" data-name="Group 6237" transform="translate(0 40.832)">
            <path id="Path_11138" data-name="Path 11138" d="M259.332,19.238l-7.057-1.026-3.156-6.4a.682.682,0,0,0-.618-.385V29.838l6.311,3.321a.69.69,0,0,0,1-.727L254.607,25.4l5.107-4.982a.69.69,0,0,0-.382-1.177Z" transform="translate(-237.077 -11.427)" fill="#f7858a" stroke="#413e49" stroke-width="0.5"/>
            <path id="Path_11139" data-name="Path 11139" d="M16.049,24.915l1.092,6.371-5.717-1.448L5.111,33.159a.69.69,0,0,1-1-.727L5.316,25.4.21,20.415a.69.69,0,0,1,.382-1.177l7.057-1.026,3.156-6.4a.682.682,0,0,1,.618-.385l2.859,8.046,6.392.93Z" transform="translate(0 -11.427)" fill="#f7858a" stroke="#413e49" stroke-width="0.5"/>
          </g>
        </g>
      </g>
    </g>
  </g>
</svg>
