<svg id="Group_25616" data-name="Group 25616" xmlns="http://www.w3.org/2000/svg" xmlns:xlink="http://www.w3.org/1999/xlink" width="129.914" height="65" viewBox="0 0 129.914 65">
  <defs>
    <clipPath id="clip-path">
      <rect id="Rectangle_5081" data-name="Rectangle 5081" width="65" height="65" fill="#fff"/>
    </clipPath>
  </defs>
  <path id="Background" d="M124.468,0a5.445,5.445,0,0,1,0,10.891H93.351a5.445,5.445,0,0,1,0,10.891h17.114a5.445,5.445,0,0,1,0,10.891h-7.915c-3.792,0-6.866,2.438-6.866,5.445q0,3.007,4.668,5.445a5.445,5.445,0,0,1,0,10.891H35.785a5.445,5.445,0,1,1,0-10.891H5.445a5.445,5.445,0,1,1,0-10.891H36.563a5.445,5.445,0,0,0,0-10.891H17.114a5.445,5.445,0,0,1,0-10.891H48.232A5.445,5.445,0,1,1,48.232,0Zm0,21.782a5.445,5.445,0,1,1-5.445,5.445A5.445,5.445,0,0,1,124.468,21.782Z" transform="translate(0 8.772)" fill="#f4f4f4" fill-rule="evenodd"/>
  <g id="controls-next" transform="translate(32.457)" clip-path="url(#clip-path)">
    <path id="Path_50468" data-name="Path 50468" d="M.5,4.429A2.708,2.708,0,0,1,5,2.4l28.41,25.133a2.708,2.708,0,0,1,0,4.063L5,56.73A2.708,2.708,0,0,1,.5,54.7Z" transform="translate(0.854 2.938)" fill="#f7858a"/>
    <path id="Path_50469" data-name="Path 50469" d="M20.208.5H31.042A2.653,2.653,0,0,1,33.75,3.208V60.083a2.653,2.653,0,0,1-2.708,2.708H20.208A2.653,2.653,0,0,1,17.5,60.083V3.208A2.653,2.653,0,0,1,20.208.5Z" transform="translate(29.896 0.854)" fill="#f7858a" stroke="#363e4a" stroke-width="2"/>
    <path id="Path_50470" data-name="Path 50470" d="M34.327,29.56H.5V4.426A2.708,2.708,0,0,1,5,2.395l28.41,25.133a2.657,2.657,0,0,1,.921,2.031Z" transform="translate(0.854 2.94)" fill="#fff"/>
    <path id="Path_50471" data-name="Path 50471" d="M33.75,3.208V31.646H17.5V3.208A2.708,2.708,0,0,1,20.208.5H31.042A2.708,2.708,0,0,1,33.75,3.208Z" transform="translate(29.896 0.854)" fill="#fff"/>
    <path id="Path_50472" data-name="Path 50472" d="M.5,4.429A2.708,2.708,0,0,1,5,2.4l28.41,25.133a2.708,2.708,0,0,1,0,4.063L5,56.73A2.708,2.708,0,0,1,.5,54.7Z" transform="translate(0.854 2.938)" fill="none" stroke="#363e4a" stroke-linecap="round" stroke-linejoin="round" stroke-width="2"/>
    <path id="Path_50473" data-name="Path 50473" d="M20.208.5H31.042A2.653,2.653,0,0,1,33.75,3.208V60.083a2.653,2.653,0,0,1-2.708,2.708H20.208A2.653,2.653,0,0,1,17.5,60.083V3.208A2.653,2.653,0,0,1,20.208.5Z" transform="translate(29.896 0.854)" fill="none" stroke="#363e4a" stroke-linecap="round" stroke-linejoin="round" stroke-width="2"/>
  </g>
</svg>
