<svg xmlns="http://www.w3.org/2000/svg" width="22" height="29.333" viewBox="0 0 22 29.333">
  <path id="pdf" d="M10.421,14.672a5.528,5.528,0,0,1-.115-2.687C10.788,11.985,10.742,14.1,10.421,14.672Zm-.1,2.7A26.436,26.436,0,0,1,8.7,20.969a21.1,21.1,0,0,1,3.6-1.255,7.421,7.421,0,0,1-1.977-2.337Zm-5.391,7.15c0,.046.756-.309,2-2.3A7.919,7.919,0,0,0,4.933,24.527Zm9.276-15.36H22V27.958a1.372,1.372,0,0,1-1.375,1.375H1.375A1.372,1.372,0,0,1,0,27.958V1.375A1.372,1.372,0,0,1,1.375,0H12.833V7.792A1.379,1.379,0,0,0,14.208,9.167Zm-.458,9.843A5.75,5.75,0,0,1,11.3,15.927a8.235,8.235,0,0,0,.355-3.678,1.435,1.435,0,0,0-2.739-.39,9.526,9.526,0,0,0,.464,4.411,53.8,53.8,0,0,1-2.337,4.916c-.006,0-.006.006-.011.006-1.553.8-4.217,2.549-3.122,3.9a1.78,1.78,0,0,0,1.232.573c1.026,0,2.045-1.031,3.5-3.541a32.657,32.657,0,0,1,4.526-1.329,8.683,8.683,0,0,0,3.667,1.117,1.483,1.483,0,0,0,1.129-2.486C17.17,18.643,14.856,18.866,13.75,19.009ZM21.6,6.016,15.984.4A1.374,1.374,0,0,0,15.01,0h-.344V7.333H22V6.984A1.371,1.371,0,0,0,21.6,6.016ZM17.354,20.642c.235-.155-.143-.682-2.452-.516C17.027,21.032,17.354,20.642,17.354,20.642Z" fill="#e97176"/>
</svg>
