<svg xmlns="http://www.w3.org/2000/svg" width="25" height="25.001" viewBox="0 0 25 25.001">
  <path id="FontAwsome_drafting-compass_" data-name="FontAwsome (drafting-compass)" d="M22.315,16.818a15.47,15.47,0,0,1-4.03,2.4l2.655,4.6,2.634,1.125a.781.781,0,0,0,1.083-.625L25,21.468ZM24.39,12.2a.784.784,0,0,0-.3-1.093l-1.371-.76a.783.783,0,0,0-1.038.279,10.949,10.949,0,0,1-9.186,5,10.857,10.857,0,0,1-3.389-.563l3.289-5.7c.034,0,.065.01.1.01s.066-.009.1-.01l2.495,4.321A9.3,9.3,0,0,0,19.128,11.3L16.6,6.917a4.627,4.627,0,0,0,.589-2.23,4.688,4.688,0,0,0-9.375,0A4.632,4.632,0,0,0,8.4,6.917L5.066,12.694a10.917,10.917,0,0,1-1.645-1.9.783.783,0,0,0-1.044-.26l-1.355.785a.783.783,0,0,0-.275,1.1A14.01,14.01,0,0,0,3.481,15.44L0,21.468l.343,2.844a.781.781,0,0,0,1.083.625L4.06,23.812l3.457-5.988a14.016,14.016,0,0,0,4.983.926A14.083,14.083,0,0,0,24.39,12.2ZM12.5,3.125a1.563,1.563,0,1,1-1.563,1.563A1.563,1.563,0,0,1,12.5,3.125Z" fill="#fff"/>
</svg>
