<svg xmlns="http://www.w3.org/2000/svg" width="201.24" height="84.379" viewBox="0 0 201.24 84.379">
  <g id="Group_25738" data-name="Group 25738" transform="translate(-1544.76 -3061.647)">
    <path id="Background" d="M192.805,0a8.435,8.435,0,0,1,0,16.87H144.6a8.435,8.435,0,0,1,0,16.87h26.511a8.435,8.435,0,0,1,0,16.87h-12.26c-5.873,0-10.636,3.777-10.636,8.435q0,4.659,7.23,8.435a8.435,8.435,0,0,1,0,16.87H55.431a8.435,8.435,0,0,1,0-16.87h-47a8.435,8.435,0,1,1,0-16.87h48.2a8.435,8.435,0,0,0,0-16.87H26.511a8.435,8.435,0,0,1,0-16.87h48.2a8.435,8.435,0,1,1,0-16.87Zm0,33.741a8.435,8.435,0,1,1-8.435,8.435A8.435,8.435,0,0,1,192.805,33.741Z" transform="translate(1544.76 3061.647)" fill="#f4f4f4" fill-rule="evenodd"/>
    <g id="Group_6257" data-name="Group 6257" transform="translate(1568.389 3061.923)">
      <g id="Group_6252" data-name="Group 6252" transform="translate(38.748 0)">
        <ellipse id="Ellipse_125" data-name="Ellipse 125" cx="39.374" cy="39.404" rx="39.374" ry="39.404" transform="translate(6.977 3.357)" fill="none" stroke="#413e49" stroke-width="1"/>
        <g id="Group_6251" data-name="Group 6251">
          <g id="svgexport-6_6_" data-name="svgexport-6 (6)">
            <g id="Group_6239" data-name="Group 6239">
              <g id="Group_6238" data-name="Group 6238">
                <path id="Path_11140" data-name="Path 11140" d="M42.02,0a42.052,42.052,0,1,0,42.02,42.052A42.083,42.083,0,0,0,42.02,0Zm0,80.6A38.548,38.548,0,1,1,80.537,42.052,38.576,38.576,0,0,1,42.02,80.6Z" fill="#363636"/>
              </g>
            </g>
          </g>
          <g id="Group_6249" data-name="Group 6249" transform="translate(21.618 21.634)">
            <path id="Path_11174" data-name="Path 11174" d="M5.306,218.479H2.018A2.019,2.019,0,0,1,0,216.459V195.566a2.019,2.019,0,0,1,2.018-2.02H5.306a2.019,2.019,0,0,1,2.018,2.02v20.893A2.019,2.019,0,0,1,5.306,218.479Z" transform="translate(0 -177.644)" fill="#f7858a" stroke="#413e49" stroke-width="1"/>
            <path id="Path_11176" data-name="Path 11176" d="M141.236,326.649h-3.287a2.019,2.019,0,0,1-2.018-2.02V313.42a2.019,2.019,0,0,1,2.018-2.02h3.287a2.019,2.019,0,0,1,2.018,2.02v11.21A2.019,2.019,0,0,1,141.236,326.649Z" transform="translate(-124.77 -285.814)" fill="#363636"/>
            <path id="Path_11178" data-name="Path 11178" d="M277.167,245.3h-3.287a2.019,2.019,0,0,1-2.018-2.02V224.786a2.019,2.019,0,0,1,2.018-2.02h3.287a2.019,2.019,0,0,1,2.018,2.02v18.492a2.019,2.019,0,0,1-2.018,2.02Z" transform="translate(-249.541 -204.463)" fill="#363636"/>
            <path id="Path_11180" data-name="Path 11180" d="M413.1,155.9h-3.287a2.019,2.019,0,0,1-2.018-2.02V127.385a2.019,2.019,0,0,1,2.018-2.02H413.1a2.019,2.019,0,0,1,2.018,2.02V153.88A2.019,2.019,0,0,1,413.1,155.9Z" transform="translate(-374.312 -115.065)" fill="#f7858a" stroke="#413e49" stroke-width="1"/>
            <path id="Path_11182" data-name="Path 11182" d="M53.744,111.87a.614.614,0,0,1-.441-.186L42.556,100.665a.616.616,0,1,1,.881-.861l10.747,11.019A.624.624,0,0,1,53.744,111.87Z" transform="translate(-38.901 -91.434)" fill="#413e49"/>
            <path id="Path_11183" data-name="Path 11183" d="M183.713,47.258a.623.623,0,0,1-.386-1.1l8.8-7.08,11.229-9.028a.616.616,0,0,1,.771.961L192.9,40.042l-8.8,7.08A.613.613,0,0,1,183.713,47.258Z" transform="translate(-168.073 -27.457)" fill="#413e49"/>
            <g id="Group_6248" data-name="Group 6248" transform="translate(1.764)">
              <ellipse id="Ellipse_118" data-name="Ellipse 118" cx="1.898" cy="1.896" rx="1.898" ry="1.896" transform="translate(0 6.428)" fill="#fff" stroke="#413e49" stroke-width="1"/>
              <ellipse id="Ellipse_119" data-name="Ellipse 119" cx="1.898" cy="1.896" rx="1.898" ry="1.896" transform="translate(11.16 17.944)" fill="#fff" stroke="#413e49" stroke-width="1"/>
              <ellipse id="Ellipse_120" data-name="Ellipse 120" cx="1.898" cy="1.896" rx="1.898" ry="1.896" transform="translate(22.32 9.018)" fill="#f7858a" stroke="#413e49" stroke-width="1"/>
              <ellipse id="Ellipse_121" data-name="Ellipse 121" cx="1.898" cy="1.896" rx="1.898" ry="1.896" transform="translate(33.479 0)" fill="#fff" stroke="#413e49" stroke-width="1"/>
            </g>
          </g>
        </g>
      </g>
    </g>
  </g>
</svg>
