<svg id="Group_25615" data-name="Group 25615" xmlns="http://www.w3.org/2000/svg" xmlns:xlink="http://www.w3.org/1999/xlink" width="129.914" height="64.455" viewBox="0 0 129.914 64.455">
  <defs>
    <clipPath id="clip-path">
      <rect id="Rectangle_5125" data-name="Rectangle 5125" width="64" height="64" transform="translate(-0.039 -0.039)" fill="#fff"/>
    </clipPath>
  </defs>
  <path id="Background" d="M124.468,0a5.445,5.445,0,0,1,0,10.891H93.351a5.445,5.445,0,0,1,0,10.891h17.114a5.445,5.445,0,0,1,0,10.891h-7.915c-3.792,0-6.866,2.438-6.866,5.445q0,3.007,4.668,5.445a5.445,5.445,0,0,1,0,10.891H35.785a5.445,5.445,0,1,1,0-10.891H5.445a5.445,5.445,0,1,1,0-10.891H36.563a5.445,5.445,0,0,0,0-10.891H17.114a5.445,5.445,0,0,1,0-10.891H48.232A5.445,5.445,0,1,1,48.232,0Zm0,21.782a5.445,5.445,0,1,1-5.445,5.445A5.445,5.445,0,0,1,124.468,21.782Z" transform="translate(0 10)" fill="#f4f4f4" fill-rule="evenodd"/>
  <g id="programming-flag" transform="translate(42.039 0.039)" clip-path="url(#clip-path)">
    <path id="Path_50668" data-name="Path 50668" d="M.5,61.762V.5" transform="translate(0.832 0.838)" fill="none" stroke="#363e4a" stroke-linecap="round" stroke-linejoin="round" stroke-width="2"/>
    <path id="Path_50669" data-name="Path 50669" d="M.5,46.753l8.587-2.642A26.172,26.172,0,0,1,30.5,46.836,26.172,26.172,0,0,0,51.4,49.712l8.134-2.325a3.06,3.06,0,0,0,2.221-2.946V9.394a3.066,3.066,0,0,0-3.9-2.946L51.4,8.291a26.17,26.17,0,0,1-10.754.77A26.169,26.169,0,0,1,30.5,5.43,26.16,26.16,0,0,0,9.087,2.693L.5,5.335Z" transform="translate(0.832 2.56)" fill="#f7858a"/>
    <path id="Path_50670" data-name="Path 50670" d="M60.539,6.949a3.066,3.066,0,0,0-2.685-.5L51.4,8.291a26.17,26.17,0,0,1-10.754.77A26.169,26.169,0,0,1,30.5,5.43,26.16,26.16,0,0,0,9.087,2.693L.5,5.335V24.98l8.587-2.642A26.16,26.16,0,0,1,30.5,25.062,26.169,26.169,0,0,0,51.4,27.936l6.451-1.843a3.065,3.065,0,0,1,3.9,2.946V9.394a3.054,3.054,0,0,0-1.22-2.445Z" transform="translate(0.832 2.56)" fill="#fff"/>
    <path id="Path_50671" data-name="Path 50671" d="M.5,46.753l8.587-2.642A26.172,26.172,0,0,1,30.5,46.836,26.172,26.172,0,0,0,51.4,49.712l8.134-2.325a3.06,3.06,0,0,0,2.221-2.946V9.394a3.066,3.066,0,0,0-3.9-2.946L51.4,8.291a26.17,26.17,0,0,1-10.754.77A26.169,26.169,0,0,1,30.5,5.43,26.16,26.16,0,0,0,9.087,2.693L.5,5.335Z" transform="translate(0.832 2.56)" fill="none" stroke="#363e4a" stroke-linecap="round" stroke-linejoin="round" stroke-width="2"/>
    <path id="Path_50672" data-name="Path 50672" d="M15.5,7.5l7.99,7.99-7.99,7.99" transform="translate(25.783 12.482)" fill="none" stroke="#363e4a" stroke-linecap="round" stroke-linejoin="round" stroke-width="2"/>
    <path id="Path_50673" data-name="Path 50673" d="M13.49,7.5,5.5,15.494l7.99,7.99" transform="translate(9.149 12.482)" fill="none" stroke="#363e4a" stroke-linecap="round" stroke-linejoin="round" stroke-width="2"/>
    <path id="Path_50674" data-name="Path 50674" d="M16.327,7.5,11,23.484" transform="translate(18.298 12.482)" fill="none" stroke="#363e4a" stroke-linecap="round" stroke-linejoin="round" stroke-width="2"/>
  </g>
</svg>
