<svg xmlns="http://www.w3.org/2000/svg" width="129.914" height="72.711" viewBox="0 0 129.914 72.711">
  <g id="Group_25615" data-name="Group 25615" transform="translate(0 -1.013)">
    <path id="Background" d="M124.468,0a5.445,5.445,0,0,1,0,10.891H93.351a5.445,5.445,0,0,1,0,10.891h17.114a5.445,5.445,0,0,1,0,10.891h-7.915c-3.792,0-6.866,2.438-6.866,5.445q0,3.007,4.668,5.445a5.445,5.445,0,0,1,0,10.891H35.785a5.445,5.445,0,1,1,0-10.891H5.445a5.445,5.445,0,1,1,0-10.891H36.563a5.445,5.445,0,0,0,0-10.891H17.114a5.445,5.445,0,0,1,0-10.891H48.232A5.445,5.445,0,1,1,48.232,0Zm0,21.782a5.445,5.445,0,1,1-5.445,5.445A5.445,5.445,0,0,1,124.468,21.782Z" transform="translate(0 10)" fill="#f4f4f4" fill-rule="evenodd"/>
    <g id="squeeze-sides" transform="translate(28.587 0.927)">
      <path id="Path_50624" data-name="Path 50624" d="M43.243,18.51v6.647a6.327,6.327,0,0,1-.868,3.207,5.42,5.42,0,0,1-1.1,1.537,6.81,6.81,0,0,1-4.743,1.937L33.222,31.8H13.147A6.644,6.644,0,0,1,6.5,25.157h5.01a5.01,5.01,0,0,0,5.01-5.01,4.453,4.453,0,0,0-.3-1.637Z" transform="translate(14.042 39.809)" fill="#fff"/>
      <path id="Path_50625" data-name="Path 50625" d="M43.243,6.51V58.319H16.22a4.917,4.917,0,0,0-4.71-3.374,5.01,5.01,0,1,0,0-10.021,5.01,5.01,0,1,0,0-10.021,5.01,5.01,0,1,0,0-10.021H6.5V6.51A5.047,5.047,0,0,1,11.51,1.5H38.233a5.047,5.047,0,0,1,5.01,5.01Z" transform="translate(14.042 0)" fill="#f7858a"/>
      <path id="Path_50626" data-name="Path 50626" d="M21.2,22.511a5.01,5.01,0,0,1-5.01,5.01H9.51a5.01,5.01,0,1,1,0-10.021h6.681a4.917,4.917,0,0,1,4.71,3.374A4.453,4.453,0,0,1,21.2,22.511Z" transform="translate(9.361 37.445)" fill="#fff"/>
      <path id="Path_50627" data-name="Path 50627" d="M23.542,19.51a5.01,5.01,0,0,1-5.01,5.01H8.51a5.01,5.01,0,1,1,0-10.021H18.531a5.01,5.01,0,0,1,5.01,5.01Z" transform="translate(7.021 30.424)" fill="#fff"/>
      <path id="Path_50628" data-name="Path 50628" d="M23.542,16.51a5.01,5.01,0,0,1-5.01,5.01H8.51a5.01,5.01,0,1,1,0-10.021H18.531a5.01,5.01,0,0,1,5.01,5.01Z" transform="translate(7.021 23.403)" fill="#fff"/>
      <path id="Path_50629" data-name="Path 50629" d="M21.2,13.51a5.01,5.01,0,0,1-5.01,5.01H9.51A5.01,5.01,0,1,1,9.51,8.5h6.681a5.01,5.01,0,0,1,5.01,5.01Z" transform="translate(9.361 16.382)" fill="#fff"/>
      <path id="Path_50630" data-name="Path 50630" d="M38.15,29.712V56.434L17.24,52.96a6.328,6.328,0,0,0,.868-3.207V13.01a5.01,5.01,0,0,1,10.021,0v6.681A10.021,10.021,0,0,0,38.15,29.712Z" transform="translate(39.177 15.212)" fill="#fff"/>
      <path id="Path_50631" data-name="Path 50631" d="M43.243,6.51a5.047,5.047,0,0,0-5.01-5.01H11.51A5.047,5.047,0,0,0,6.5,6.51V24.882h5.01a5.01,5.01,0,1,1,0,10.021,5.01,5.01,0,0,1,4.676,3.213L43.243,11.06Z" transform="translate(14.042 0)" fill="#fff"/>
      <path id="Path_50632" data-name="Path 50632" d="M37.542,29.712A10.021,10.021,0,0,1,27.521,19.691V13.01a5.01,5.01,0,1,0-10.021,0" transform="translate(39.785 15.212)" fill="none" stroke="#363e4a" stroke-linecap="round" stroke-linejoin="round" stroke-width="2"/>
      <path id="Path_50633" data-name="Path 50633" d="M6.5,18.2V6.51A5.027,5.027,0,0,1,11.51,1.5H38.233a5.01,5.01,0,0,1,5.01,5.01V64.966a6.681,6.681,0,0,1-6.721,6.681l-3.3-.02H13.161A6.66,6.66,0,0,1,6.5,64.966" transform="translate(14.042 0)" fill="none" stroke="#363e4a" stroke-linecap="round" stroke-linejoin="round" stroke-width="2"/>
      <path id="Path_50634" data-name="Path 50634" d="M12.585,20.262a.835.835,0,1,0,.591.245A.835.835,0,0,0,12.585,20.262Z" transform="translate(26.328 43.909)" fill="none" stroke="#363e4a" stroke-linecap="round" stroke-linejoin="round" stroke-width="2"/>
      <path id="Path_50635" data-name="Path 50635" d="M9.5,18.512H36.222" transform="translate(21.063 39.813)" fill="none" stroke="#363e4a" stroke-linecap="round" stroke-linejoin="round" stroke-width="2"/>
      <path id="Path_50636" data-name="Path 50636" d="M21.2,22.51a5.01,5.01,0,0,1-5.01,5.01H9.51a5.01,5.01,0,1,1,0-10.021h6.681a5.01,5.01,0,0,1,5.01,5.01Z" transform="translate(9.361 37.445)" fill="none" stroke="#363e4a" stroke-linecap="round" stroke-linejoin="round" stroke-width="2"/>
      <path id="Path_50637" data-name="Path 50637" d="M23.542,19.51a5.01,5.01,0,0,1-5.01,5.01H8.51a5.01,5.01,0,1,1,0-10.021H18.531a5.01,5.01,0,0,1,5.01,5.01Z" transform="translate(7.021 30.424)" fill="none" stroke="#363e4a" stroke-linecap="round" stroke-linejoin="round" stroke-width="2"/>
      <path id="Path_50638" data-name="Path 50638" d="M23.542,16.51a5.01,5.01,0,0,1-5.01,5.01H8.51a5.01,5.01,0,1,1,0-10.021H18.531a5.01,5.01,0,0,1,5.01,5.01Z" transform="translate(7.021 23.403)" fill="none" stroke="#363e4a" stroke-linecap="round" stroke-linejoin="round" stroke-width="2"/>
      <path id="Path_50639" data-name="Path 50639" d="M21.2,13.51a5.01,5.01,0,0,1-5.01,5.01H9.51A5.01,5.01,0,1,1,9.51,8.5h6.681a5.01,5.01,0,0,1,5.01,5.01Z" transform="translate(9.361 16.382)" fill="none" stroke="#363e4a" stroke-linecap="round" stroke-linejoin="round" stroke-width="2"/>
      <path id="Path_50640" data-name="Path 50640" d="M17.5,21.5l20.042,3.34" transform="translate(39.785 46.806)" fill="none" stroke="#363e4a" stroke-linecap="round" stroke-linejoin="round" stroke-width="2"/>
      <path id="Path_50641" data-name="Path 50641" d="M.5,3.5H13.861" transform="translate(0 4.681)" fill="none" stroke="#363e4a" stroke-linecap="round" stroke-linejoin="round" stroke-width="2"/>
      <path id="Path_50642" data-name="Path 50642" d="M2.5,1.5,9.181,8.181,2.5,14.861" transform="translate(4.681 0)" fill="none" stroke="#363e4a" stroke-linecap="round" stroke-linejoin="round" stroke-width="2"/>
      <path id="Path_50643" data-name="Path 50643" d="M32.861,3.5H19.5" transform="translate(44.466 4.681)" fill="none" stroke="#363e4a" stroke-linecap="round" stroke-linejoin="round" stroke-width="2"/>
      <path id="Path_50644" data-name="Path 50644" d="M26.181,1.5,19.5,8.181l6.681,6.681" transform="translate(44.466 0)" fill="none" stroke="#363e4a" stroke-linecap="round" stroke-linejoin="round" stroke-width="2"/>
    </g>
  </g>
</svg>
