<svg xmlns="http://www.w3.org/2000/svg" width="201.24" height="88.644" viewBox="0 0 201.24 88.644">
  <g id="Group_25733" data-name="Group 25733" transform="translate(22.213 -0.002)">
    <path id="Background" d="M192.805,0a8.435,8.435,0,0,1,0,16.87H144.6a8.435,8.435,0,0,1,0,16.87h26.511a8.435,8.435,0,0,1,0,16.87h-12.26c-5.873,0-10.636,3.777-10.636,8.435q0,4.659,7.23,8.435a8.435,8.435,0,0,1,0,16.87H55.431a8.435,8.435,0,0,1,0-16.87h-47a8.435,8.435,0,1,1,0-16.87h48.2a8.435,8.435,0,0,0,0-16.87H26.511a8.435,8.435,0,0,1,0-16.87h48.2a8.435,8.435,0,1,1,0-16.87Zm0,33.741a8.435,8.435,0,1,1-8.435,8.435A8.435,8.435,0,0,1,192.805,33.741Z" transform="translate(-22.213 1.821)" fill="#f4f4f4" fill-rule="evenodd"/>
    <g id="Group_6256" data-name="Group 6256" transform="translate(38.549)">
      <ellipse id="Ellipse_117" data-name="Ellipse 117" cx="39.374" cy="39.404" rx="39.374" ry="39.404" transform="translate(7.384 6.821)" fill="#fff"/>
      <path id="Path_11113" data-name="Path 11113" d="M140.039,158.82c-14.8,0-25.176-10.638-25.176-25.453,0-6.014.409-11.572,3.757-16.054a26.845,26.845,0,1,1,39,36.421C152.922,157.784,146.714,158.82,140.039,158.82Z" transform="translate(-93.376 -87.143)" fill="#fff" stroke="#363636" stroke-width="1"/>
      <path id="Path_11115" data-name="Path 11115" d="M128.454,232.013h-3.731a.187.187,0,0,0-.186.166,42.263,42.263,0,0,1-41.972,37.332c-11.288,0-21.249-4.667-29.229-12.65a38.954,38.954,0,0,1-8.579-13.141c-.569-1.359-1.187-3.031.068-3.7a2.843,2.843,0,0,1,.411-.18,2.812,2.812,0,0,1,3.513,1.578,36.716,36.716,0,0,0,33.816,22.5c18.528,0,35.665-14.031,38.1-31.9a11.317,11.317,0,0,0-1.964,0h-3.623a.945.945,0,0,1-.748-1.542l4.9-5.95,1.788-2.17a.971.971,0,0,1,1.494,0l2.357,2.862,4.331,5.258A.945.945,0,0,1,128.454,232.013Z" transform="translate(-35.938 -180.866)" fill="#363636"/>
      <g id="Group_6235" data-name="Group 6235" transform="matrix(-0.999, -0.052, 0.052, -0.999, 85.207, 51.915)">
        <path id="Path_11125" data-name="Path 11125" d="M84.362,10.017H80.631a.187.187,0,0,0-.186.166,41.921,41.921,0,0,1-12.09,24.954,41.976,41.976,0,0,1-29.88,12.376c-11.288,0-21.249-4.668-29.229-12.651A38.958,38.958,0,0,1,.666,21.72c-.569-1.359-1.187-3.031.068-3.7a2.842,2.842,0,0,1,.411-.18,2.812,2.812,0,0,1,3.513,1.578,36.72,36.72,0,0,0,33.817,22.5C57,41.916,73.663,27.966,76.1,10.1a6.149,6.149,0,0,0-1.488-.081H70.986a.946.946,0,0,1-.748-1.542l4.9-5.95L76.926.354a.971.971,0,0,1,1.494,0l2.357,2.862,4.331,5.258A.945.945,0,0,1,84.362,10.017Z" transform="translate(0 0)" fill="#363636"/>
      </g>
      <path id="Path_11124" data-name="Path 11124" d="M209.266,153.254a27.422,27.422,0,0,1-6.344-2.814,2.54,2.54,0,0,1-.813-.793,3.137,3.137,0,0,1,.858-3.524,4.082,4.082,0,0,1,3.026-.862,5.067,5.067,0,0,1,2.984,1.033,2.869,2.869,0,0,0,3.965-.307,2.83,2.83,0,0,0-.335-4.028,10.52,10.52,0,0,0-4.276-2.067.188.188,0,0,1-.146-.182v-2.3a2.88,2.88,0,0,0-2.692-2.9,2.827,2.827,0,0,0-2.96,2.825v2.585a.187.187,0,0,1-.136.18,8.669,8.669,0,0,0-6.006,6.815,7.75,7.75,0,0,0,2.572,7.628c1.766,1.386,4.205,2.56,8.42,4.051a3.521,3.521,0,0,1,2.548,4.128,4.613,4.613,0,0,1-4.576,3.893c-2.664.017-3.494-.114-5.538-1.452a2.825,2.825,0,0,0-3.973.917,2.887,2.887,0,0,0,.963,3.871,12.367,12.367,0,0,0,5.561,2.184.188.188,0,0,1,.166.186v2.533a2.827,2.827,0,0,0,2.96,2.825,2.88,2.88,0,0,0,2.692-2.9v-2.747a.187.187,0,0,1,.135-.179,9.977,9.977,0,0,0,3.966-2.248,10.461,10.461,0,0,0,3.218-5.94,9.189,9.189,0,0,0-6.239-10.4Z" transform="translate(-158.786 -109.863)" fill="#f7858a" stroke="#413e49" stroke-width="1"/>
    </g>
  </g>
</svg>
