<svg id="Group_25616" data-name="Group 25616" xmlns="http://www.w3.org/2000/svg" xmlns:xlink="http://www.w3.org/1999/xlink" width="129.914" height="72" viewBox="0 0 129.914 72">
  <defs>
    <clipPath id="clip-path">
      <rect id="Rectangle_5124" data-name="Rectangle 5124" width="72" height="72" transform="translate(0.374 0.374)" fill="#fff"/>
    </clipPath>
  </defs>
  <path id="Background" d="M124.468,0a5.445,5.445,0,0,1,0,10.891H93.351a5.445,5.445,0,0,1,0,10.891h17.114a5.445,5.445,0,0,1,0,10.891h-7.915c-3.792,0-6.866,2.438-6.866,5.445q0,3.007,4.668,5.445a5.445,5.445,0,0,1,0,10.891H35.785a5.445,5.445,0,1,1,0-10.891H5.445a5.445,5.445,0,1,1,0-10.891H36.563a5.445,5.445,0,0,0,0-10.891H17.114a5.445,5.445,0,0,1,0-10.891H48.232A5.445,5.445,0,1,1,48.232,0Zm0,21.782a5.445,5.445,0,1,1-5.445,5.445A5.445,5.445,0,0,1,124.468,21.782Z" transform="translate(0 8.772)" fill="#f4f4f4" fill-rule="evenodd"/>
  <g id="server-check-1" transform="translate(34.083 -0.374)" clip-path="url(#clip-path)">
    <path id="Path_50645" data-name="Path 50645" d="M52.03,18.078A7.578,7.578,0,0,0,44.452,10.5H8.078a7.578,7.578,0,1,0,0,15.156H44.452a7.578,7.578,0,0,0,7.578-7.578Z" transform="translate(1.016 21.327)" fill="#f7858a"/>
    <path id="Path_50646" data-name="Path 50646" d="M52.03,18.078A7.578,7.578,0,0,0,44.452,10.5H8.078A7.578,7.578,0,0,0,.5,18.078Z" transform="translate(1.016 21.327)" fill="#fff"/>
    <path id="Path_50647" data-name="Path 50647" d="M52.03,13.078A7.578,7.578,0,0,0,44.452,5.5H8.078a7.578,7.578,0,1,0,0,15.156H44.452a7.578,7.578,0,0,0,7.578-7.578Z" transform="translate(1.016 11.171)" fill="#f7858a"/>
    <path id="Path_50648" data-name="Path 50648" d="M52.03,13.078A7.578,7.578,0,0,0,44.452,5.5H8.078A7.578,7.578,0,0,0,.5,13.078Z" transform="translate(1.016 11.171)" fill="#fff"/>
    <path id="Path_50649" data-name="Path 50649" d="M52.03,8.078A7.578,7.578,0,0,0,44.452.5H8.078a7.578,7.578,0,1,0,0,15.156H44.452A7.578,7.578,0,0,0,52.03,8.078Z" transform="translate(1.016 1.016)" fill="#f7858a"/>
    <path id="Path_50650" data-name="Path 50650" d="M52.03,8.078A7.578,7.578,0,0,0,44.452.5H8.078A7.578,7.578,0,0,0,.5,8.078Z" transform="translate(1.016 1.016)" fill="#fff"/>
    <path id="Path_50651" data-name="Path 50651" d="M11.5,29.687a18.187,18.187,0,1,0,5.327-12.86A18.186,18.186,0,0,0,11.5,29.687Z" transform="translate(23.358 23.358)" fill="#fff"/>
    <path id="Path_50652" data-name="Path 50652" d="M42.549,16.827A18.189,18.189,0,0,0,16.827,42.549Z" transform="translate(23.357 23.357)" fill="#fff"/>
    <path id="Path_50653" data-name="Path 50653" d="M11.5,29.687a18.187,18.187,0,1,0,5.327-12.86A18.186,18.186,0,0,0,11.5,29.687Z" transform="translate(23.358 23.358)" fill="none" stroke="#363e4a" stroke-linecap="round" stroke-linejoin="round" stroke-width="2"/>
    <path id="Path_50654" data-name="Path 50654" d="M31.417,15.756,22.611,27.5a2.274,2.274,0,0,1-3.425.242l-4.547-4.547" transform="translate(29.734 32.003)" fill="none" stroke="#f7858a" stroke-linecap="round" stroke-linejoin="round" stroke-width="2"/>
    <path id="Path_50655" data-name="Path 50655" d="M5.5,20.5h9.094" transform="translate(11.171 41.639)" fill="none" stroke="#363e4a" stroke-linecap="round" stroke-linejoin="round" stroke-width="2"/>
    <path id="Path_50656" data-name="Path 50656" d="M8.5,15.5V30.656" transform="translate(17.267 31.483)" fill="none" stroke="#363e4a" stroke-linecap="round" stroke-linejoin="round" stroke-width="2"/>
    <path id="Path_50657" data-name="Path 50657" d="M3.758,20a.758.758,0,1,0,.536.222A.759.759,0,0,0,3.758,20Z" transform="translate(6.094 40.623)" fill="none" stroke="#363e4a" stroke-linecap="round" stroke-linejoin="round" stroke-width="2"/>
    <path id="Path_50658" data-name="Path 50658" d="M1.258,20a.758.758,0,1,0,.536.222A.759.759,0,0,0,1.258,20Z" transform="translate(1.016 40.623)" fill="none" stroke="#363e4a" stroke-linecap="round" stroke-linejoin="round" stroke-width="2"/>
    <path id="Path_50659" data-name="Path 50659" d="M4.758,12.75a.758.758,0,1,0,.536.222A.759.759,0,0,0,4.758,12.75Z" transform="translate(8.125 25.897)" fill="none" stroke="#363e4a" stroke-linecap="round" stroke-linejoin="round" stroke-width="2"/>
    <path id="Path_50660" data-name="Path 50660" d="M7.258,12.75a.758.758,0,1,0,.536.222A.759.759,0,0,0,7.258,12.75Z" transform="translate(13.203 25.897)" fill="none" stroke="#363e4a" stroke-linecap="round" stroke-linejoin="round" stroke-width="2"/>
    <path id="Path_50661" data-name="Path 50661" d="M36.874,10.5H8.078a7.578,7.578,0,1,0,0,15.156h19.7" transform="translate(1.016 21.327)" fill="none" stroke="#363e4a" stroke-linecap="round" stroke-linejoin="round" stroke-width="2"/>
    <path id="Path_50662" data-name="Path 50662" d="M4.758,7.75a.758.758,0,1,0,.536.222A.758.758,0,0,0,4.758,7.75Z" transform="translate(8.125 15.742)" fill="none" stroke="#363e4a" stroke-linecap="round" stroke-linejoin="round" stroke-width="2"/>
    <path id="Path_50663" data-name="Path 50663" d="M7.258,7.75a.758.758,0,1,0,.536.222A.758.758,0,0,0,7.258,7.75Z" transform="translate(13.203 15.742)" fill="none" stroke="#363e4a" stroke-linecap="round" stroke-linejoin="round" stroke-width="2"/>
    <path id="Path_50664" data-name="Path 50664" d="M52.03,13.078A7.578,7.578,0,0,0,44.452,5.5H8.078a7.578,7.578,0,1,0,0,15.156h28.8" transform="translate(1.016 11.171)" fill="none" stroke="#363e4a" stroke-linecap="round" stroke-linejoin="round" stroke-width="2"/>
    <path id="Path_50665" data-name="Path 50665" d="M4.758,2.75a.758.758,0,1,0,.536.222A.758.758,0,0,0,4.758,2.75Z" transform="translate(8.125 5.586)" fill="none" stroke="#363e4a" stroke-linecap="round" stroke-linejoin="round" stroke-width="2"/>
    <path id="Path_50666" data-name="Path 50666" d="M7.258,2.75a.758.758,0,1,0,.536.222A.758.758,0,0,0,7.258,2.75Z" transform="translate(13.203 5.586)" fill="none" stroke="#363e4a" stroke-linecap="round" stroke-linejoin="round" stroke-width="2"/>
    <path id="Path_50667" data-name="Path 50667" d="M52.03,8.078A7.578,7.578,0,0,0,44.452.5H8.078a7.578,7.578,0,1,0,0,15.156H44.452A7.578,7.578,0,0,0,52.03,8.078Z" transform="translate(1.016 1.016)" fill="none" stroke="#363e4a" stroke-linecap="round" stroke-linejoin="round" stroke-width="2"/>
  </g>
</svg>
