<svg xmlns="http://www.w3.org/2000/svg" width="201.24" height="100.41" viewBox="0 0 201.24 100.41">
  <g id="Group_25734" data-name="Group 25734" transform="translate(12.891 0)">
    <path id="Background" d="M192.805,0a8.435,8.435,0,0,1,0,16.87H144.6a8.435,8.435,0,0,1,0,16.87h26.511a8.435,8.435,0,0,1,0,16.87h-12.26c-5.873,0-10.636,3.777-10.636,8.435q0,4.659,7.23,8.435a8.435,8.435,0,0,1,0,16.87H55.431a8.435,8.435,0,0,1,0-16.87h-47a8.435,8.435,0,1,1,0-16.87h48.2a8.435,8.435,0,0,0,0-16.87H26.511a8.435,8.435,0,0,1,0-16.87h48.2a8.435,8.435,0,1,1,0-16.87Zm0,33.741a8.435,8.435,0,1,1-8.435,8.435A8.435,8.435,0,0,1,192.805,33.741Z" transform="translate(-12.891 16.058)" fill="#f4f4f4" fill-rule="evenodd"/>
    <g id="icon" transform="translate(28.109)">
      <path id="Path_11075" data-name="Path 11075" d="M39.02,403.38H1.579a1.58,1.58,0,0,1,0-3.16H39.02a1.58,1.58,0,0,1,0,3.16Z" transform="translate(0 -322.271)" fill="#363636" stroke="#413e49" stroke-width="1"/>
      <path id="Path_11076" data-name="Path 11076" d="M79.22,370.078H58.6a1.58,1.58,0,0,1,0-3.16H79.22a1.58,1.58,0,0,1,0,3.16Z" transform="translate(-45.019 -295.984)" fill="#363636" stroke="#413e49" stroke-width="1"/>
      <path id="Path_11077" data-name="Path 11077" d="M31.134,336.778H1.579a1.58,1.58,0,0,1,0-3.16H31.134a1.58,1.58,0,0,1,0,3.16Z" transform="translate(0 -269.699)" fill="#363636" stroke="#413e49" stroke-width="1"/>
      <path id="Path_11078" data-name="Path 11078" d="M73.8,303.477H57.558a1.58,1.58,0,0,1,0-3.16H73.8a1.58,1.58,0,0,1,0,3.16Z" transform="translate(-44.196 -243.413)" fill="#363636" stroke="#413e49" stroke-width="1"/>
      <path id="Path_11079" data-name="Path 11079" d="M29.382,270.176H1.579a1.58,1.58,0,0,1,0-3.16h27.8a1.58,1.58,0,0,1,0,3.16Z" transform="translate(0 -217.126)" fill="#363636" stroke="#413e49" stroke-width="1"/>
      <path id="Path_11080" data-name="Path 11080" d="M303.87,65.561h7.009v7.453H303.87Z" transform="translate(-239.909 -58.108)" fill="#5a5a5a"/>
      <path id="Path_11081" data-name="Path 11081" d="M303.87,65.561h7.009v7.453H303.87Z" transform="translate(-239.909 -58.108)" fill="#363636"/>
      <path id="Path_11082" data-name="Path 11082" d="M205.91,96.209l-6.07,3.507-2.847-4.936a1.754,1.754,0,0,1,.641-2.4l3.035-1.754a1.751,1.751,0,0,1,2.394.642Z" transform="translate(-155.342 -77.711)" fill="none" stroke="#413e49" stroke-width="1"/>
      <path id="Path_11083" data-name="Path 11083" d="M400.8,96.209l6.07,3.507,2.847-4.936a1.754,1.754,0,0,0-.641-2.4l-3.035-1.754a1.751,1.751,0,0,0-2.394.642Z" transform="translate(-316.437 -77.711)" fill="none" stroke="#413e49" stroke-width="1"/>
      <path id="Path_11084" data-name="Path 11084" d="M294.666,37.632H280.647a1.753,1.753,0,0,1-1.752-1.754V31.933a1.753,1.753,0,0,1,1.752-1.754h14.019a1.753,1.753,0,0,1,1.752,1.754v3.946A1.753,1.753,0,0,1,294.666,37.632Z" transform="translate(-220.191 -30.179)" fill="#363636"/>
      <path id="Path_50395" data-name="Path 50395" d="M40.3,0A40.335,40.335,0,1,1,0,40.335,40.32,40.32,0,0,1,40.3,0Z" transform="translate(27.161 14.468)" fill="#f7858a"/>
      <path id="Path_11087" data-name="Path 11087" d="M221.494,182.309a1.58,1.58,0,0,1,1.579-2.736l2.295,1.326a33.1,33.1,0,0,0,3.67-13.691h-2.654a1.58,1.58,0,0,1,0-3.16h2.654a33.107,33.107,0,0,0-3.67-13.691l-2.295,1.326a1.58,1.58,0,0,1-1.579-2.736l2.291-1.323A33.577,33.577,0,0,0,213.772,137.6l-1.322,2.292a1.579,1.579,0,1,1-2.734-1.58l1.325-2.3a33.035,33.035,0,0,0-13.68-3.673V135a1.579,1.579,0,1,1-3.157,0v-2.656a33.041,33.041,0,0,0-13.68,3.673l1.325,2.3a1.579,1.579,0,1,1-2.734,1.58L177.79,137.6a33.577,33.577,0,0,0-10.013,10.021l2.291,1.323a1.58,1.58,0,1,1-1.579,2.736l-2.295-1.326a33.1,33.1,0,0,0-3.67,13.691h2.654a1.58,1.58,0,0,1,0,3.16h-2.654a33.107,33.107,0,0,0,3.67,13.691l2.295-1.326a1.58,1.58,0,0,1,1.579,2.736l-2.29,1.324a33.576,33.576,0,0,0,10.013,10.021l1.322-2.292a1.579,1.579,0,1,1,2.734,1.58l-1.325,2.3a33.034,33.034,0,0,0,13.68,3.673v-2.656a1.579,1.579,0,1,1,3.157,0v2.656a33.043,33.043,0,0,0,13.68-3.673l-1.325-2.3a1.579,1.579,0,1,1,2.734-1.58l1.322,2.292a33.577,33.577,0,0,0,10.013-10.021Z" transform="translate(-128.316 -110.824)" fill="#fff" stroke="#413e49" stroke-width="1"/>
      <g id="Group_6232" data-name="Group 6232" transform="translate(41.21 75.27)">
        <path id="Path_11090" data-name="Path 11090" d="M205.371,392.767c.007-.013.016-.024.024-.037a33.267,33.267,0,0,1-9.611-5.23,33.579,33.579,0,0,0,8.265,7.558Z" transform="translate(-195.784 -387.5)" fill="#e6f7fe"/>
      </g>
      <path id="Path_11091" data-name="Path 11091" d="M327.653,213.4a3.506,3.506,0,0,0-4.956-4.96L308.747,222.4l4.956,4.96Z" transform="translate(-243.76 -170.082)" fill="#fff" stroke="#413e49" stroke-width="1"/>
      <ellipse id="Ellipse_116" data-name="Ellipse 116" cx="3.505" cy="3.507" rx="3.505" ry="3.507" transform="translate(63.961 51.296)" fill="#413e49" stroke="#413e49" stroke-width="1"/>
      <path id="Path_11095" data-name="Path 11095" d="M314.6,136.437a1.579,1.579,0,0,0,1.579-1.58V132.2c-.523-.025-1.049-.038-1.579-.038s-1.055.014-1.579.038v2.656A1.579,1.579,0,0,0,314.6,136.437Z" transform="translate(-247.134 -110.68)" fill="#413e49" stroke="#413e49" stroke-width="1"/>
      <path id="Path_11096" data-name="Path 11096" d="M458.409,284.421a1.579,1.579,0,0,0,1.579,1.58h2.654q.037-.786.038-1.58c0-.53-.014-1.056-.038-1.58h-2.654A1.579,1.579,0,0,0,458.409,284.421Z" transform="translate(-361.92 -229.618)" fill="#413e49" stroke="#413e49" stroke-width="1"/>
      <path id="Path_11097" data-name="Path 11097" d="M236.37,153.656a1.579,1.579,0,1,0,2.734-1.58l-1.325-2.3q-1.406.729-2.732,1.584Z" transform="translate(-185.574 -124.586)" fill="#413e49" stroke="#413e49" stroke-width="1"/>
      <path id="Path_11098" data-name="Path 11098" d="M441.3,355.746a1.58,1.58,0,0,0-1.579,2.736l2.29,1.324q.854-1.326,1.583-2.734Z" transform="translate(-346.541 -286.999)" fill="#413e49" stroke="#413e49" stroke-width="1"/>
      <path id="Path_11099" data-name="Path 11099" d="M237.781,413.416l1.325-2.3a1.579,1.579,0,1,0-2.734-1.58l-1.322,2.292Q236.373,412.687,237.781,413.416Z" transform="translate(-185.574 -329.004)" fill="#413e49" stroke="#413e49" stroke-width="1"/>
      <path id="Path_11100" data-name="Path 11100" d="M439.141,208.351a1.577,1.577,0,0,0,2.156.578l2.295-1.326q-.728-1.407-1.583-2.734l-2.291,1.323A1.58,1.58,0,0,0,439.141,208.351Z" transform="translate(-346.541 -168.071)" fill="#413e49" stroke="#413e49" stroke-width="1"/>
      <path id="Path_11101" data-name="Path 11101" d="M166.613,284.421a1.579,1.579,0,0,0-1.579-1.58H162.38c-.025.524-.038,1.05-.038,1.58s.014,1.056.038,1.58h2.654A1.579,1.579,0,0,0,166.613,284.421Z" transform="translate(-128.171 -229.618)" fill="#413e49" stroke="#413e49" stroke-width="1"/>
      <path id="Path_11102" data-name="Path 11102" d="M182.254,355.747l-2.295,1.326q.728,1.407,1.583,2.734l2.29-1.324a1.579,1.579,0,0,0-1.578-2.736Z" transform="translate(-142.08 -286.999)" fill="#413e49" stroke="#413e49" stroke-width="1"/>
      <path id="Path_11103" data-name="Path 11103" d="M182.254,208.93a1.58,1.58,0,0,0,1.579-2.736l-2.291-1.323q-.854,1.326-1.583,2.734Z" transform="translate(-142.08 -168.071)" fill="#413e49" stroke="#413e49" stroke-width="1"/>
      <path id="Path_11104" data-name="Path 11104" d="M388.66,409.541a1.579,1.579,0,1,0-2.734,1.58l1.325,2.3q1.406-.729,2.732-1.584Z" transform="translate(-304.526 -329.004)" fill="#413e49" stroke="#413e49" stroke-width="1"/>
      <path id="Path_11105" data-name="Path 11105" d="M316.178,432.466V429.81a1.579,1.579,0,1,0-3.157,0v2.656c.523.025,1.049.038,1.579.038S315.655,432.49,316.178,432.466Z" transform="translate(-247.134 -344.381)" fill="#413e49" stroke="#413e49" stroke-width="1"/>
      <path id="Path_11106" data-name="Path 11106" d="M387.25,149.78l-1.325,2.3a1.579,1.579,0,1,0,2.734,1.58l1.322-2.292Q388.658,150.509,387.25,149.78Z" transform="translate(-304.526 -124.586)" fill="#413e49" stroke="#413e49" stroke-width="1"/>
    </g>
  </g>
</svg>
