<svg xmlns="http://www.w3.org/2000/svg" width="129.914" height="76.023" viewBox="0 0 129.914 76.023">
  <g id="Group_25614" data-name="Group 25614" transform="translate(0 1)">
    <path id="Background" d="M124.468,0a5.445,5.445,0,0,1,0,10.891H93.351a5.445,5.445,0,0,1,0,10.891h17.114a5.445,5.445,0,0,1,0,10.891h-7.915c-3.792,0-6.866,2.438-6.866,5.445q0,3.007,4.668,5.445a5.445,5.445,0,0,1,0,10.891H35.785a5.445,5.445,0,1,1,0-10.891H5.445a5.445,5.445,0,1,1,0-10.891H36.563a5.445,5.445,0,0,0,0-10.891H17.114a5.445,5.445,0,0,1,0-10.891H48.232A5.445,5.445,0,1,1,48.232,0Zm0,21.782a5.445,5.445,0,1,1-5.445,5.445A5.445,5.445,0,0,1,124.468,21.782Z" transform="translate(0 16.784)" fill="#f4f4f4" fill-rule="evenodd"/>
    <g id="design-tool-pen-station" transform="translate(40.992)">
      <path id="Path_50416" data-name="Path 50416" d="M17,12.5h3.218a9.655,9.655,0,0,1,0,19.31H17" transform="translate(28.057 26.12)" fill="none" stroke="#363e4a" stroke-linecap="round" stroke-linejoin="round" stroke-width="2"/>
      <path id="Path_50417" data-name="Path 50417" d="M45.839,45.9A6.437,6.437,0,0,1,39.4,52.339H10.437A6.437,6.437,0,0,1,4,45.9V12.109A1.609,1.609,0,0,1,5.609,10.5H44.23a1.609,1.609,0,0,1,1.609,1.609Z" transform="translate(-0.782 21.684)" fill="#fff"/>
      <path id="Path_50418" data-name="Path 50418" d="M39.4,23.7H10.437A6.437,6.437,0,0,1,4,17.264V30.9a6.437,6.437,0,0,0,6.437,6.437H39.4A6.437,6.437,0,0,0,45.839,30.9V17.264A6.437,6.437,0,0,1,39.4,23.7Z" transform="translate(-0.782 36.689)" fill="#f7858a"/>
      <path id="Path_50419" data-name="Path 50419" d="M45.839,45.9A6.437,6.437,0,0,1,39.4,52.339H10.437A6.437,6.437,0,0,1,4,45.9V12.109A1.609,1.609,0,0,1,5.609,10.5H44.23a1.609,1.609,0,0,1,1.609,1.609Z" transform="translate(-0.782 21.684)" fill="none" stroke="#363e4a" stroke-linecap="round" stroke-linejoin="round" stroke-width="2"/>
      <path id="Path_50420" data-name="Path 50420" d="M25.718,6.917,20.437,20.9H14L22.4,5.813" transform="translate(21.402 11.286)" fill="#fff"/>
      <path id="Path_50421" data-name="Path 50421" d="M17.983,20.487H8.328L3.5,10.832,9.937,6Z" transform="translate(-1.891 11.71)" fill="#fff"/>
      <path id="Path_50422" data-name="Path 50422" d="M11.046,9.332,4.609,14.159,3,4.5Z" transform="translate(-3 8.382)" fill="#f7858a"/>
      <path id="Path_50423" data-name="Path 50423" d="M21.873,2.109A1.609,1.609,0,0,0,20.264.5H10.609A1.609,1.609,0,0,0,9,2.109V32.684H21.873Z" transform="translate(10.31 -0.5)" fill="#fff"/>
      <path id="Path_50424" data-name="Path 50424" d="M17.437,2.5H11" transform="translate(14.747 3.937)" fill="none" stroke="#363e4a" stroke-linecap="round" stroke-linejoin="round" stroke-width="2"/>
      <path id="Path_50425" data-name="Path 50425" d="M15.218,4.5H12" transform="translate(16.965 8.373)" fill="none" stroke="#363e4a" stroke-linecap="round" stroke-linejoin="round" stroke-width="2"/>
      <path id="Path_50426" data-name="Path 50426" d="M17.437,6.5H11" transform="translate(14.747 12.81)" fill="none" stroke="#363e4a" stroke-linecap="round" stroke-linejoin="round" stroke-width="2"/>
      <path id="Path_50427" data-name="Path 50427" d="M15.218,8.5H12" transform="translate(16.965 17.247)" fill="none" stroke="#363e4a" stroke-linecap="round" stroke-linejoin="round" stroke-width="2"/>
      <path id="Path_50428" data-name="Path 50428" d="M19.107.564C22.431,5.63,17.5,8.407,16.361,11.127a4.988,4.988,0,0,0,2.848,6.852C28.543,21.921,31.324,3.519,19.107.564Z" transform="translate(25.564 -0.358)" fill="#f7858a"/>
      <path id="Path_50429" data-name="Path 50429" d="M25.718,6.917,20.437,20.9H14L22.4,5.813" transform="translate(21.402 11.286)" fill="none" stroke="#363e4a" stroke-linecap="round" stroke-linejoin="round" stroke-width="2"/>
      <path id="Path_50430" data-name="Path 50430" d="M17.983,20.487H8.328L3.5,10.832,9.937,6Z" transform="translate(-1.891 11.71)" fill="none" stroke="#363e4a" stroke-linecap="round" stroke-linejoin="round" stroke-width="2"/>
      <path id="Path_50431" data-name="Path 50431" d="M11.046,9.332,4.609,14.159,3,4.5Z" transform="translate(-3 8.382)" fill="none" stroke="#363e4a" stroke-linecap="round" stroke-linejoin="round" stroke-width="2"/>
      <path id="Path_50432" data-name="Path 50432" d="M21.873,2.109A1.609,1.609,0,0,0,20.264.5H10.609A1.609,1.609,0,0,0,9,2.109V32.684H21.873Z" transform="translate(10.31 -0.5)" fill="none" stroke="#363e4a" stroke-linecap="round" stroke-linejoin="round" stroke-width="2"/>
      <path id="Path_50433" data-name="Path 50433" d="M19.107.564C22.431,5.63,17.5,8.407,16.361,11.127a4.988,4.988,0,0,0,2.848,6.852C28.543,21.921,31.324,3.519,19.107.564Z" transform="translate(25.564 -0.358)" fill="none" stroke="#363e4a" stroke-linecap="round" stroke-linejoin="round" stroke-width="2"/>
    </g>
  </g>
</svg>
